Coordinates
version=1
nRows=18
nColumns=34
inDegrees=no

Units are S.I. units (second, meters, Newtons, ...)
If the header above contains a line with 'inDegrees', this indicates whether rotational values are in degrees (yes) or radians (no).

endheader
time	pelvis_tilt	pelvis_list	pelvis_rotation	pelvis_tx	pelvis_ty	pelvis_tz	hip_flexion_r	hip_adduction_r	hip_rotation_r	knee_angle_r	ankle_angle_r	subtalar_angle_r	mtp_angle_r	hip_flexion_l	hip_adduction_l	hip_rotation_l	knee_angle_l	ankle_angle_l	subtalar_angle_l	mtp_angle_l	lumbar_extension	lumbar_bending	lumbar_rotation	arm_flex_r	arm_add_r	arm_rot_r	elbow_flex_r	pro_sup_r	arm_flex_l	arm_add_l	arm_rot_l	elbow_flex_l	pro_sup_l
1.31	-0.055484	-0.0548003	0.0654365	-0.411291	1.13051	-0.552479	0.382891	-0.0222969	-0.311292	0.187667	-0.60172	0.0747027	-0.115704	0.422024	-0.152264	-0.215489	0.231553	-0.562972	0.189751	-0.115704	-0.0437921	0.0421371	-0.194198	-0.535909	-1.14739	-1.0265	2.58413	1.75241	-0.732237	-0.887689	-1.03523	2.47428	1.74947
1.32	-0.0491249	-0.0622585	0.0676502	-0.400641	1.10157	-0.552031	0.417093	-0.0211431	-0.271216	0.310492	-0.419835	0.0436419	-0.115704	0.45803	-0.157182	-0.158036	0.35366	-0.380848	0.143006	-0.115704	-0.046639	0.0469867	-0.190139	-0.527382	-1.10472	-1.06228	2.59919	1.79165	-0.712971	-0.852089	-1.01212	2.49219	1.80332
1.33	-0.0455018	-0.0692351	0.068482	-0.391158	1.07435	-0.551384	0.453367	-0.0170993	-0.235194	0.425862	-0.255244	0.0103376	-0.115704	0.497237	-0.161781	-0.108585	0.47081	-0.218338	0.101511	-0.115704	-0.0488041	0.0513308	-0.18336	-0.513734	-1.05692	-1.08587	2.6115	1.82306	-0.687316	-0.816265	-0.981809	2.49882	1.85356
1.34	-0.0445468	-0.0757174	0.0679587	-0.38284	1.04889	-0.550542	0.491583	-0.0101994	-0.203085	0.533562	-0.108756	-0.0252309	-0.115704	0.539443	-0.16603	-0.0669173	0.58269	-0.0760046	0.065187	-0.115704	-0.0503921	0.0551722	-0.173896	-0.495182	-1.00404	-1.09746	2.62105	1.84673	-0.655387	-0.780239	-0.944404	2.49416	1.90013
1.35	-0.0460306	-0.0816591	0.0661595	-0.375682	1.02528	-0.549525	0.531347	-0.000572904	-0.174462	0.633157	0.0179311	-0.0630218	-0.115704	0.584007	-0.169837	-0.0324358	0.688507	0.0451375	0.0338102	-0.115704	-0.0517315	0.0585135	-0.161873	-0.47234	-0.946346	-1.09754	2.62776	1.86303	-0.617594	-0.744104	-0.900311	2.47824	1.94278
1.36	-0.0494998	-0.0869614	0.0632336	-0.369654	1.00368	-0.548368	0.571931	0.0114804	-0.148611	0.724176	0.123017	-0.102744	-0.115704	0.629721	-0.17304	-0.0042035	0.787044	0.144395	0.00702446	-0.115704	-0.0534209	0.061343	-0.147583	-0.446247	-0.884516	-1.08698	2.63134	1.87294	-0.57484	-0.708077	-0.850427	2.45121	1.98112
1.37	-0.0543311	-0.0914815	0.0594095	-0.364692	0.984259	-0.547123	0.612325	0.0254468	-0.124714	0.806257	0.205595	-0.1437	-0.115704	0.67489	-0.175435	0.0188589	0.876853	0.222172	-0.0155996	-0.115704	-0.0562162	0.0636293	-0.131548	-0.418211	-0.8198	-1.06689	2.63113	1.87807	-0.528622	-0.672545	-0.796223	2.41354	2.01452
1.38	-0.0599342	-0.0950886	0.054989	-0.360699	0.967151	-0.545855	0.651424	0.0406169	-0.102138	0.87916	0.266274	-0.18477	-0.115704	0.717694	-0.176841	0.0377521	0.956482	0.280304	-0.0345077	-0.115704	-0.060747	0.0653486	-0.11454	-0.389595	-0.754068	-1.03837	2.62614	1.88062	-0.48094	-0.638054	-0.739631	2.36611	2.04228
1.39	-0.0660012	-0.0977392	0.0503227	-0.357558	0.952398	-0.544628	0.6883	0.0561544	-0.0806797	0.94268	0.307272	-0.224528	-0.115704	0.756656	-0.177175	0.0532584	1.02472	0.321884	-0.0501315	-0.115704	-0.0672032	0.0665288	-0.0975115	-0.361628	-0.689656	-1.00246	2.61514	1.88307	-0.434014	-0.605268	-0.682748	2.31021	2.06383
1.4	-0.0726265	-0.0995067	0.0457767	-0.355147	0.939942	-0.5435	0.722389	0.0711741	-0.0606093	0.996626	0.332065	-0.261453	-0.115704	0.790966	-0.176473	0.0659174	1.08078	0.350742	-0.0628834	-0.115704	-0.0752034	0.0672609	-0.0814589	-0.335288	-0.629075	-0.960071	2.59692	1.88775	-0.389909	-0.574896	-0.627469	2.24751	2.07902
1.41	-0.0802124	-0.100538	0.0417056	-0.35335	0.929638	-0.542517	0.753519	0.0848029	-0.0425136	1.04092	0.344748	-0.294168	-0.115704	0.820519	-0.174831	0.0760825	1.12449	0.370778	-0.073166	-0.115704	-0.0839409	0.0676551	-0.0672618	-0.311238	-0.574667	-0.912182	2.5706	1.89645	-0.350194	-0.5476	-0.575182	2.17995	2.08827
1.42	-0.0892364	-0.100973	0.0384362	-0.352065	0.921292	-0.541719	0.781816	0.0962338	-0.0270302	1.07577	0.349355	-0.321638	-0.115704	0.845741	-0.172323	0.0840078	1.15629	0.385322	-0.0813767	-0.115704	-0.092505	0.0677775	-0.0555632	-0.289813	-0.528279	-0.859938	2.53596	1.91014	-0.315749	-0.523909	-0.526609	2.10953	2.09247
1.43	-0.100025	-0.100891	0.0362451	-0.351201	0.914692	-0.541137	0.807551	0.104796	-0.0146194	1.10175	0.349323	-0.343285	-0.115704	0.86735	-0.168959	0.0899204	1.17725	0.396701	-0.087886	-0.115704	-0.100187	0.0676168	-0.0467046	-0.271054	-0.491054	-0.804722	2.49351	1.92889	-0.286742	-0.504138	-0.481813	2.03825	2.09282
1.44	-0.112628	-0.100301	0.0353202	-0.350681	0.909632	-0.540795	0.831002	0.110039	-0.00544132	1.11978	0.347223	-0.359005	-0.115704	0.886149	-0.164708	0.0940482	1.18894	0.406118	-0.0929921	-0.115704	-0.106654	0.0670993	-0.0407076	-0.254779	-0.46334	-0.748108	2.44443	1.95193	-0.262758	-0.488331	-0.440361	1.96785	2.09063
1.45	-0.126807	-0.0991632	0.0357127	-0.35043	0.905928	-0.540705	0.852366	0.111795	0.000664815	1.13099	0.344713	-0.369116	-0.115704	0.902878	-0.159583	0.0965935	1.19322	0.413832	-0.0968791	-0.115704	-0.111958	0.0661279	-0.0372891	-0.240676	-0.444729	-0.691747	2.39033	1.97785	-0.242987	-0.476247	-0.401542	1.89969	2.08715
1.46	-0.142109	-0.0974211	0.0373014	-0.350382	0.903416	-0.540858	0.87173	0.110205	0.00412628	1.1366	0.342672	-0.374236	-0.115704	0.918096	-0.153709	0.0976734	1.19199	0.419551	-0.0996088	-0.115704	-0.116439	0.0646192	-0.0359043	-0.228386	-0.434192	-0.637244	2.33308	2.00488	-0.226431	-0.467388	-0.364596	1.83463	2.08342
1.47	-0.158	-0.0950293	0.0397913	-0.350475	0.90195	-0.541231	0.889109	0.105681	0.00553941	1.13774	0.341389	-0.375143	-0.115704	0.932128	-0.147358	0.0972766	1.18695	0.422867	-0.101144	-0.115704	-0.120558	0.0625262	-0.0358144	-0.217559	-0.430264	-0.586058	2.27446	2.03111	-0.212065	-0.461058	-0.328875	1.77302	2.08011
1.48	-0.173991	-0.0919808	0.0427568	-0.350658	0.901389	-0.541781	0.904537	0.0988383	0.00555644	1.13538	0.340767	-0.372672	-0.115704	0.945095	-0.14093	0.0952811	1.17935	0.423573	-0.101392	-0.115704	-0.124727	0.0598582	-0.0361798	-0.207902	-0.431261	-0.539435	2.21605	2.05467	-0.198952	-0.456442	-0.29394	1.7147	2.07744
